<?xml version="1.0" standalone="no"?>
<!DOCTYPE svg PUBLIC "-//W3C//DTD SVG 20010904//EN"
 "http://www.w3.org/TR/2001/REC-SVG-20010904/DTD/svg10.dtd">
<svg version="1.0" xmlns="http://www.w3.org/2000/svg"
 width="200.000000pt" height="200.000000pt" viewBox="0 0 200.000000 200.000000"
 preserveAspectRatio="xMidYMid meet">
<metadata>
Created by potrace 1.11, written by Peter Selinger 2001-2013
</metadata>
<g transform="translate(0.000000,200.000000) scale(0.100000,-0.100000)"
fill="#000000" stroke="none">
<path d="M1075 1729 c-11 -17 1 -21 15 -4 8 9 8 15 2 15 -6 0 -14 -5 -17 -11z"/>
<path d="M648 1723 c-3 -4 -2 -19 3 -33 4 -14 7 -19 8 -12 2 20 31 14 31 -7 0
-21 -32 -37 -51 -25 -7 4 -10 1 -7 -7 3 -8 17 -14 33 -14 30 -1 44 -18 24 -31
-8 -4 -9 -3 -5 4 4 7 1 12 -8 12 -21 0 -20 -13 3 -34 19 -17 19 -46 0 -46 -5
0 -25 33 -45 73 -19 39 -32 63 -29 52 3 -11 11 -42 17 -70 5 -27 15 -55 21
-60 7 -6 14 -17 16 -25 12 -47 12 -60 2 -60 -9 0 -9 -5 0 -21 8 -16 8 -28 0
-45 -17 -39 -3 -27 18 14 12 23 17 48 14 66 -3 15 0 52 7 82 10 39 11 73 4
121 -8 59 -12 68 -31 71 -11 2 -23 0 -25 -5z m42 -293 c0 -5 -2 -10 -4 -10 -3
0 -8 5 -11 10 -3 6 -1 10 4 10 6 0 11 -4 11 -10z"/>
<path d="M1977 1576 c-9 -13 -19 -36 -23 -50 -3 -14 -10 -26 -16 -26 -5 0 -7
4 -4 9 4 5 3 16 0 25 -5 14 -7 14 -21 0 -13 -13 -17 -13 -24 -2 -5 7 -9 9 -9
3 0 -5 5 -17 10 -25 11 -18 -25 -61 -46 -53 -8 3 -14 0 -14 -6 0 -6 -6 -11
-14 -11 -7 0 -21 -10 -29 -22 l-16 -23 0 26 c-1 34 -40 54 -108 54 l-51 0 3
-38 c2 -35 0 -39 -27 -44 -22 -4 -26 -8 -17 -19 9 -11 16 -10 37 6 18 15 28
17 38 10 9 -8 16 -5 27 11 17 23 37 18 37 -9 0 -9 5 -24 10 -32 7 -12 12 -12
22 -2 6 6 16 12 22 12 5 0 7 -3 3 -6 -3 -3 5 -16 19 -29 25 -23 35 -73 12 -59
-7 5 -3 -5 10 -20 12 -16 22 -35 22 -42 0 -14 54 -28 91 -22 15 2 26 12 30 28
l7 25 1 -27 c1 -21 5 -25 21 -21 18 5 20 14 20 75 0 65 -1 70 -20 65 -11 -3
-18 -1 -15 3 3 5 1 11 -5 15 -6 4 -8 10 -5 15 6 10 14 110 8 110 -2 0 -8 -10
-13 -22 -6 -17 -9 -19 -9 -6 -1 17 18 68 46 121 17 33 11 36 -10 3z"/>
<path d="M938 1563 c7 -3 16 -2 19 1 4 3 -2 6 -13 5 -11 0 -14 -3 -6 -6z"/>
<path d="M873 1534 l-28 -26 35 23 c46 29 45 29 32 29 -6 0 -24 -12 -39 -26z"/>
<path d="M18 1493 c-7 -16 -14 -83 -16 -150 l-4 -123 30 0 c16 0 43 3 60 6
l31 6 -1 110 c-1 102 -3 110 -23 118 -11 4 -27 16 -35 26 -14 18 -14 18 5 4
20 -15 20 -14 1 8 -25 29 -34 28 -48 -5z m80 -60 c2 -32 -8 -63 -19 -63 -6 0
-9 9 -6 19 2 10 1 25 -4 32 -5 8 -3 17 4 21 18 12 24 10 25 -9z"/>
<path d="M948 1513 c6 -2 18 -2 25 0 6 3 1 5 -13 5 -14 0 -19 -2 -12 -5z"/>
<path d="M884 1478 l-19 -23 23 19 c21 18 27 26 19 26 -2 0 -12 -10 -23 -22z"/>
<path d="M85 1480 c-3 -5 1 -10 9 -10 9 0 16 5 16 10 0 6 -4 10 -9 10 -6 0
-13 -4 -16 -10z"/>
<path d="M1020 1476 c0 -2 7 -7 16 -10 8 -3 12 -2 9 4 -6 10 -25 14 -25 6z"/>
<path d="M1846 1468 c3 -5 10 -6 15 -3 13 9 11 12 -6 12 -8 0 -12 -4 -9 -9z"/>
<path d="M528 1435 c3 -17 0 -25 -9 -26 -8 0 -3 -5 11 -10 15 -6 20 -13 14
-17 -16 -10 -9 -113 7 -123 9 -6 10 -9 2 -9 -6 0 -13 -8 -15 -17 -3 -15 9 -20
72 -30 41 -6 100 -17 130 -24 55 -13 55 -14 20 -19 -19 -3 -46 -3 -59 0 -13 3
-60 2 -105 -2 -44 -5 -91 -7 -104 -5 -21 4 -22 3 -8 -18 8 -12 26 -67 39 -121
13 -55 26 -104 28 -110 2 -7 0 -14 -5 -15 -4 -2 -19 23 -31 56 -13 33 -24 56
-24 51 -1 -5 -21 12 -45 37 -42 44 -44 45 -52 24 -6 -18 -8 -15 -11 18 -3 22
-11 47 -19 56 -8 9 -14 20 -13 25 5 29 -2 33 -43 28 -24 -4 -49 -11 -55 -16
-9 -7 -13 -7 -13 2 0 9 -3 10 -13 1 -8 -6 -16 -9 -18 -7 -2 2 -19 6 -36 9 -28
6 -33 4 -33 -13 0 -24 8 -29 53 -32 38 -2 49 -14 22 -24 -19 -8 -19 -24 0 -24
16 0 20 -12 49 -160 18 -92 24 -105 42 -108 22 -3 34 -27 34 -72 0 -40 35 -89
59 -83 11 3 21 15 23 27 3 18 6 15 21 -16 21 -44 41 -42 94 9 39 36 39 36 68
-18 l14 -26 130 1 c89 1 134 5 142 13 8 8 13 48 14 110 2 133 27 361 36 337 7
-17 8 -17 8 -1 1 9 8 17 16 17 20 0 19 8 -5 48 -20 33 -44 45 -33 15 5 -13 2
-15 -11 -10 -10 4 -23 7 -30 7 -7 0 -13 7 -13 15 0 10 11 15 34 15 23 0 33 5
33 15 0 16 -27 76 -39 85 -16 13 -61 80 -61 92 0 10 -3 9 -10 -2 -7 -12 -15
-8 -40 20 -18 19 -30 28 -29 20 2 -8 -5 -27 -15 -42 -10 -15 -15 -31 -12 -36
3 -5 -2 -16 -12 -24 -23 -21 -49 -17 -129 18 -22 9 -33 21 -33 34 0 11 -4 20
-10 20 -5 0 -10 11 -10 24 0 14 -4 27 -9 30 -4 3 -6 -6 -3 -19z m327 -255 c4
-6 -7 -10 -25 -10 -18 0 -29 4 -25 10 3 6 15 10 25 10 10 0 22 -4 25 -10z
m-73 -102 c16 -55 16 -155 0 -288 -19 -159 -10 -145 -91 -145 -69 0 -71 1 -81
29 -14 40 -14 39 22 32 43 -8 98 3 98 20 0 8 -4 14 -10 14 -5 0 -10 5 -10 11
0 5 5 7 12 3 7 -5 9 -2 6 8 -11 27 -21 264 -14 312 6 40 10 46 31 46 20 0 27
-8 37 -42z m-144 -226 c-2 -34 1 -63 5 -65 5 -1 -2 -15 -15 -29 l-23 -27 3
137 c2 75 6 144 9 152 9 23 24 -96 21 -168z m-273 26 c10 -29 21 -57 25 -61 7
-8 74 16 123 43 27 16 21 -6 -10 -35 -16 -14 -45 -28 -65 -31 -42 -7 -48 -25
-22 -63 16 -22 15 -23 -2 -19 -10 2 -20 12 -22 23 -2 11 -11 27 -19 36 -10 13
-11 18 -2 21 9 3 8 10 -4 29 -15 24 -34 109 -24 109 3 0 13 -24 22 -52z m203
-100 c19 -19 14 -30 -8 -18 -11 6 -20 15 -20 20 0 14 14 12 28 -2z m-178 -74
c0 -2 -7 -4 -15 -4 -8 0 -15 4 -15 10 0 5 7 7 15 4 8 -4 15 -8 15 -10z"/>
<path d="M1090 1450 c-9 -6 -10 -10 -3 -10 6 0 15 5 18 10 8 12 4 12 -15 0z"/>
<path d="M1395 1446 c-13 -9 -15 -17 -9 -29 21 -37 95 -104 133 -122 46 -20
49 -33 30 -111 l-11 -44 -117 -1 c-64 -1 -132 0 -151 1 -106 6 -130 5 -130 -8
0 -20 14 -22 205 -26 99 -2 181 -5 182 -5 1 -1 -20 -84 -31 -118 -6 -19 -4
-23 16 -24 14 0 17 -3 8 -6 -8 -2 -22 -7 -30 -11 -8 -3 -22 -7 -30 -8 -8 -1
-33 -6 -55 -12 -39 -9 -39 -9 -13 -16 15 -5 35 -3 47 4 32 16 41 4 39 -49 -3
-59 20 -97 65 -109 17 -5 31 -13 30 -18 -2 -14 156 -7 173 7 11 9 14 25 10 56
-3 28 -1 41 6 37 5 -4 2 6 -8 22 -11 15 -13 25 -6 21 7 -5 12 -3 12 3 0 6 16
44 35 84 41 85 46 153 16 199 -10 16 -20 28 -22 26 -6 -4 -49 25 -49 33 0 5 7
8 16 8 11 0 14 5 10 16 -3 9 -6 20 -6 24 0 5 -21 3 -47 -5 -56 -17 -66 -13
-48 22 11 20 11 31 3 47 -7 13 -13 16 -16 8 -2 -6 -12 -12 -23 -12 -10 0 -19
-7 -19 -15 0 -8 -7 -15 -16 -15 -8 0 -13 4 -10 9 9 14 -4 41 -20 41 -8 0 -14
6 -14 13 -1 14 -78 73 -114 87 -16 6 -29 5 -41 -4z m192 -502 c-3 -3 -12 -4
-19 -1 -8 3 -5 6 6 6 11 1 17 -2 13 -5z"/>
<path d="M338 1430 c-4 -14 -8 -36 -8 -50 1 -22 2 -23 11 -7 6 9 9 32 7 50 -3
31 -3 31 -10 7z"/>
<path d="M983 1443 c9 -2 25 -2 35 0 9 3 1 5 -18 5 -19 0 -27 -2 -17 -5z"/>
<path d="M1975 1440 c-3 -5 -2 -10 4 -10 5 0 13 5 16 10 3 6 2 10 -4 10 -5 0
-13 -4 -16 -10z"/>
<path d="M301 1395 c0 -38 2 -45 9 -28 5 12 5 34 0 50 -7 24 -8 21 -9 -22z"/>
<path d="M360 1406 c0 -19 4 -37 9 -41 6 -3 8 7 7 22 -2 16 1 34 6 41 8 8 6
12 -6 12 -12 0 -16 -9 -16 -34z"/>
<path d="M919 1413 c-13 -16 -12 -17 4 -4 9 7 17 15 17 17 0 8 -8 3 -21 -13z"/>
<path d="M1080 1415 c0 -21 69 -60 83 -46 13 13 13 14 -40 39 -32 15 -43 17
-43 7z"/>
<path d="M271 1404 c0 -11 3 -14 6 -6 3 7 2 16 -1 19 -3 4 -6 -2 -5 -13z"/>
<path d="M988 1413 c6 -2 18 -2 25 0 6 3 1 5 -13 5 -14 0 -19 -2 -12 -5z"/>
<path d="M420 1403 c0 -5 4 -14 9 -22 7 -11 11 -9 20 8 10 18 9 21 -9 21 -11
0 -20 -3 -20 -7z"/>
<path d="M1973 1365 c0 -8 4 -12 9 -9 4 3 8 9 8 15 0 5 -4 9 -8 9 -5 0 -9 -7
-9 -15z"/>
<path d="M1260 1360 c-13 -8 -13 -10 2 -10 9 0 20 5 23 10 8 13 -5 13 -25 0z"/>
<path d="M495 1319 c-4 -6 -5 -12 -2 -15 2 -3 7 2 10 11 7 17 1 20 -8 4z"/>
<path d="M484 1281 c4 -5 1 -11 -6 -13 -7 -3 -8 -10 -4 -17 7 -11 10 -11 17 0
12 19 11 39 -2 39 -5 0 -8 -4 -5 -9z"/>
<path d="M245 1230 c-8 -13 5 -13 25 0 13 8 13 10 -2 10 -9 0 -20 -4 -23 -10z"/>
<path d="M455 1220 c-3 -5 3 -10 15 -10 12 0 18 5 15 10 -3 6 -10 10 -15 10
-5 0 -12 -4 -15 -10z"/>
<path d="M1296 1213 c-11 -11 -6 -23 9 -23 8 0 15 4 15 9 0 13 -16 22 -24 14z"/>
<path d="M1787 1209 c7 -7 15 -10 18 -7 3 3 -2 9 -12 12 -14 6 -15 5 -6 -5z"/>
<path d="M1265 1200 c3 -5 8 -10 11 -10 2 0 4 5 4 10 0 6 -5 10 -11 10 -5 0
-7 -4 -4 -10z"/>
<path d="M103 1173 c-8 -3 -13 -23 -13 -48 0 -24 -4 -47 -10 -50 -6 -4 -10 9
-10 33 0 47 -2 50 -40 44 -35 -5 -38 -21 -15 -96 8 -28 18 -84 20 -125 3 -42
8 -94 10 -116 4 -29 2 -36 -5 -25 -8 12 -10 11 -10 -7 0 -20 5 -23 39 -23 l38
0 6 -52 c4 -32 3 -54 -3 -56 -17 -6 -11 -17 21 -36 28 -16 33 -17 46 -3 13 13
14 28 4 117 -7 56 -9 115 -6 131 4 17 2 36 -4 43 -6 7 -16 59 -22 116 -7 64
-17 109 -26 118 -8 8 -12 21 -9 28 3 8 4 14 3 13 -1 0 -8 -3 -14 -6z"/>
<path d="M1870 1131 c0 -14 6 -21 19 -21 11 0 22 -6 24 -12 4 -10 6 -10 6 0 1
17 28 15 35 -3 7 -20 -9 -100 -42 -200 -15 -44 -25 -84 -24 -89 2 -4 -2 -14
-8 -21 -8 -10 -8 -15 0 -20 8 -5 7 -13 -3 -28 -7 -12 -17 -30 -20 -41 -6 -14
-4 -17 9 -12 9 4 23 1 30 -5 8 -7 24 -13 37 -15 12 -2 32 -6 45 -10 l22 -6 0
246 0 246 -49 0 c-27 0 -56 3 -65 6 -12 4 -16 0 -16 -15z m120 -75 c0 -2 -8
-10 -17 -17 -16 -13 -17 -12 -4 4 13 16 21 21 21 13z"/>
<path d="M1058 1123 c6 -2 18 -2 25 0 6 3 1 5 -13 5 -14 0 -19 -2 -12 -5z"/>
<path d="M993 1104 c-7 -3 -9 -12 -6 -20 8 -21 19 -17 19 6 0 11 0 20 -1 19 0
0 -5 -3 -12 -5z"/>
<path d="M1049 1103 c-1 -5 -1 -12 0 -17 1 -5 -5 -6 -14 -2 -9 3 -13 2 -10 -3
3 -6 -2 -14 -10 -18 -15 -9 -15 -29 -2 -63 9 -23 20 -73 23 -99 2 -13 8 -37
14 -54 5 -17 8 -32 6 -35 -3 -2 17 -41 44 -85 38 -65 45 -84 34 -90 -20 -11
-17 -25 6 -32 11 -3 20 -13 20 -21 0 -8 6 -14 14 -14 8 0 21 -3 30 -6 10 -4
22 5 35 27 20 32 20 49 0 49 -6 0 -7 -4 -4 -10 3 -6 -1 -7 -9 -4 -9 3 -16 11
-16 18 0 6 -8 16 -19 23 -24 15 -32 61 -17 93 11 23 7 86 -15 238 -1 7 -16 17
-33 22 -28 9 -29 10 -4 6 15 -2 25 1 22 5 -3 5 -20 9 -37 10 -31 1 -31 1 -7 9
25 8 25 8 -5 10 -21 2 -24 4 -10 7 38 8 46 13 40 23 -4 7 -12 7 -18 2 -18 -12
-52 -9 -49 6 1 6 0 12 -3 12 -3 0 -6 -3 -6 -7z m-8 -56 c-13 -13 -26 -3 -16
12 3 6 11 8 17 5 6 -4 6 -10 -1 -17z m79 -227 c0 -5 -2 -10 -4 -10 -3 0 -8 5
-11 10 -3 6 -1 10 4 10 6 0 11 -4 11 -10z m50 -46 c0 -18 -26 -18 -33 0 -3 8
-3 16 0 19 9 10 33 -5 33 -19z"/>
<path d="M1070 1100 c0 -5 7 -7 15 -4 8 4 15 8 15 10 0 2 -7 4 -15 4 -8 0 -15
-4 -15 -10z"/>
<path d="M1830 840 c0 -5 5 -10 10 -10 6 0 10 5 10 10 0 6 -4 10 -10 10 -5 0
-10 -4 -10 -10z"/>
<path d="M1777 823 c-2 -5 -1 -19 4 -33 7 -23 7 -23 8 8 1 31 -3 40 -12 25z"/>
<path d="M1280 809 c0 -5 9 -9 20 -9 11 0 20 2 20 4 0 2 -9 6 -20 9 -11 3 -20
1 -20 -4z"/>
<path d="M1335 770 c3 -5 8 -10 11 -10 2 0 4 5 4 10 0 6 -5 10 -11 10 -5 0 -7
-4 -4 -10z"/>
<path d="M1758 719 c-7 -46 0 -69 20 -62 13 4 13 2 -2 -9 -18 -15 -18 -15 3
-21 11 -3 21 -11 21 -19 0 -18 38 -41 53 -31 7 4 1 11 -18 19 l-30 12 25 11
25 11 -28 -3 c-26 -4 -28 -3 -23 28 9 52 16 64 34 57 16 -5 16 -5 0 11 -9 10
-30 20 -46 23 -27 6 -30 3 -34 -27z"/>
<path d="M1398 709 c-10 -5 -18 -21 -18 -34 0 -25 -9 -26 -62 -9 -13 4 -18 2
-14 -4 6 -10 60 -23 103 -26 23 -2 33 17 33 62 0 24 -14 28 -42 11z"/>
<path d="M1019 647 c-15 -11 -15 -14 0 -27 8 -8 20 -14 25 -12 5 2 4 -3 -2
-11 -12 -14 -6 -27 12 -27 6 0 4 5 -4 10 -15 10 -12 11 23 14 19 2 39 25 32
36 -4 6 -15 8 -26 5 -12 -4 -21 -1 -25 9 -7 19 -14 19 -35 3z"/>
<path d="M1752 611 c-11 -6 -9 -9 6 -13 15 -4 19 -2 15 8 -6 16 -4 16 -21 5z"/>
<path d="M965 570 c-3 -5 -2 -10 4 -10 5 0 13 5 16 10 3 6 2 10 -4 10 -5 0
-13 -4 -16 -10z"/>
<path d="M1098 573 c6 -2 18 -2 25 0 6 3 1 5 -13 5 -14 0 -19 -2 -12 -5z"/>
<path d="M476 554 c-11 -28 -7 -56 7 -48 6 4 4 -2 -5 -13 -10 -11 -18 -26 -18
-34 0 -8 10 -2 25 15 28 32 32 67 11 85 -11 9 -15 8 -20 -5z"/>
<path d="M1010 566 c0 -3 14 -12 30 -21 24 -13 30 -13 30 -2 0 8 -6 14 -12 14
-7 0 -21 4 -30 8 -10 4 -18 5 -18 1z"/>
<path d="M482 450 c-7 -11 -8 -20 -3 -20 9 0 24 30 18 36 -1 2 -8 -6 -15 -16z"/>
<path d="M656 454 c-9 -24 -2 -26 12 -4 7 11 8 20 3 20 -5 0 -12 -7 -15 -16z"/>
<path d="M1500 430 c0 -5 5 -10 10 -10 6 0 10 5 10 10 0 6 -4 10 -10 10 -5 0
-10 -4 -10 -10z"/>
<path d="M1550 420 c34 -11 60 -11 35 0 -11 5 -29 8 -40 8 -16 0 -15 -2 5 -8z"/>
<path d="M1550 321 c0 -6 4 -13 10 -16 6 -3 7 1 4 9 -7 18 -14 21 -14 7z"/>
<path d="M610 190 c0 -5 9 -14 20 -20 11 -6 20 -7 20 -3 0 5 -9 14 -20 21 -11
7 -20 8 -20 2z"/>
<path d="M1583 155 c-8 -9 -9 -15 -2 -17 6 -2 7 -12 3 -22 -5 -14 -9 -15 -15
-4 -7 10 -9 10 -9 -2 -1 -12 -3 -12 -13 2 -10 13 -23 15 -55 11 -82 -11 -39
-33 66 -33 62 0 62 0 62 29 0 35 -20 55 -37 36z"/>
<path d="M650 90 c-21 -7 -21 -8 -5 -9 11 0 27 4 35 9 18 11 5 11 -30 0z"/>
<path d="M1630 70 c0 -5 5 -10 11 -10 5 0 7 5 4 10 -3 6 -8 10 -11 10 -2 0 -4
-4 -4 -10z"/>
<path d="M1700 61 c0 -6 -7 -11 -16 -11 -14 0 -14 -3 -4 -15 10 -12 10 -15 -1
-15 -9 -1 -8 -4 4 -11 28 -16 45 -5 40 25 -5 26 -23 47 -23 27z"/>
<path d="M460 39 c0 -5 9 -9 20 -9 11 0 20 2 20 4 0 2 -9 6 -20 9 -11 3 -20 1
-20 -4z"/>
</g>
</svg>
